Coordinates
version=1
nRows=5
nColumns=40
inDegrees=yes

Units are S.I. units (second, meters, Newtons, ...)
If the header above contains a line with 'inDegrees', this indicates whether rotational values are in degrees (yes) or radians (no).

endheader
time	pelvis_tilt	pelvis_list	pelvis_rotation	pelvis_tx	pelvis_ty	pelvis_tz	hip_flexion_r	hip_adduction_r	hip_rotation_r	knee_angle_r	knee_angle_r_beta	ankle_angle_r	subtalar_angle_r	mtp_angle_r	hip_flexion_l	hip_adduction_l	hip_rotation_l	knee_angle_l	knee_angle_l_beta	ankle_angle_l	subtalar_angle_l	mtp_angle_l	lumbar_extension	lumbar_bending	lumbar_rotation	arm_flex_r	arm_add_r	arm_rot_r	elbow_flex_r	pro_sup_r	wrist_flex_r	wrist_dev_r	arm_flex_l	arm_add_l	arm_rot_l	elbow_flex_l	pro_sup_l	wrist_flex_l	wrist_dev_l
      0.88500000	     -7.28322139	     -0.44375685	     -2.05382727	      0.22090724	      0.88654700	     -1.21278331	     20.25719468	    -22.46148830	    -28.74647425	     24.89214023	      0.43444980	     -1.83784527	     -0.08717690	      0.00000000	     19.42546430	    -26.15446931	    -36.01247206	     26.47515622	      0.46207865	      1.14710415	     14.71086804	      0.00000000	      0.00000000	      0.00000000	      0.00000000	     44.99602538	    -15.00079777	     44.99602538	     75.00017949	     45.00000026	      0.00000000	      0.00000000	     44.99602538	    -15.00079777	     44.99602538	     75.00017949	     45.00000026	      0.00000000	      0.00000000
      0.89000000	     -7.48981830	     -0.46160663	     -2.06991022	      0.21978125	      0.88501517	     -1.21276190	     20.94738771	    -22.61765324	    -28.44006046	     25.64305838	      0.44755580	     -1.58768018	     -0.32015893	      0.00000000	     20.09530070	    -26.42219550	    -35.71866303	     27.23464737	      0.47533427	      1.42643954	     14.48055036	      0.00000000	      0.00000000	      0.00000000	      0.00000000	     44.99609381	    -15.00077847	     44.99609381	     75.00017936	     45.00000026	      0.00000000	      0.00000000	     44.99609381	    -15.00077847	     44.99609381	     75.00017936	     45.00000026	      0.00000000	      0.00000000
      0.89500000	     -7.72808954	     -0.48766388	     -2.06867250	      0.21863323	      0.88334460	     -1.21277341	     21.67584768	    -22.78354431	    -28.18135057	     26.42620039	      0.46122421	     -1.31721571	     -0.53691028	      0.00000000	     20.83612025	    -26.70707654	    -35.39087794	     28.04114076	      0.48941023	      1.71650876	     14.24806844	      0.00000000	      0.00000000	      0.00000000	      0.00000000	     44.99632982	    -15.00070871	     44.99632982	     75.00017885	     45.00000026	      0.00000000	      0.00000000	     44.99632982	    -15.00070871	     44.99632982	     75.00017885	     45.00000026	      0.00000000	      0.00000000
      0.90000000	     -7.94276920	     -0.63482809	     -1.96767761	      0.21752384	      0.88170682	     -1.21303610	     22.26495532	    -22.84920641	    -28.07420532	     27.12096247	      0.47335009	     -1.09387485	     -0.72298648	      0.00000000	     21.64514924	    -27.07694741	    -34.88399259	     28.88276567	      0.50409936	      2.01718505	     13.98946808	      0.00000000	      0.00000000	      0.00000000	      0.00000000	     44.99639619	    -15.00069031	     44.99639619	     75.00017874	     45.00000026	      0.00000000	      0.00000000	     44.99639619	    -15.00069031	     44.99639619	     75.00017874	     45.00000026	      0.00000000	      0.00000000
      0.90500000	     -8.14722784	     -0.56359920	     -2.00483583	      0.21631121	      0.87997608	     -1.21298783	     23.02247462	    -23.11086722	    -27.71456435	     27.94120670	      0.48766605	     -0.80252049	     -0.96265047	      0.00000000	     22.30831622	    -27.24972317	    -34.60791789	     29.64602826	      0.51742080	      2.29302445	     13.74555938	      0.00000000	      0.00000000	      0.00000000	      0.00000000	     44.99645969	    -15.00067382	     44.99645969	     75.00017864	     45.00000026	      0.00000000	      0.00000000	     44.99645969	    -15.00067382	     44.99645969	     75.00017864	     45.00000026	      0.00000000	      0.00000000
